<svg width="306" height="287" viewBox="0 0 306 287" fill="none" xmlns="http://www.w3.org/2000/svg">
<g opacity="0.5" clip-path="url(#clip0_158_4828)">
<path d="M14.7527 213.691C14.7527 218.887 14.7527 223.165 14.7527 227.444C14.7527 231.417 13.5323 234.779 8.95603 235.085C4.37975 235.391 2.24416 232.334 1.93907 228.361C1.02382 217.97 -1.11178 207.273 0.718731 197.187C4.07467 177.626 4.68484 157.76 7.73569 138.2C15.0577 92.3552 35.4984 53.5401 71.8036 24.1995C85.8375 12.8911 102.007 4.94472 119.702 0.971518C121.227 0.665887 122.753 0.0546246 124.583 0.0546246C127.939 -0.251007 130.99 0.665887 132.21 4.33346C133.431 8.6123 130.99 11.0573 127.329 12.2799C123.363 13.5024 119.092 14.4193 115.126 15.6418C96.5155 22.0601 80.9561 32.7572 67.5324 46.8162C49.8374 65.1541 37.329 86.5482 30.312 111.304C31.5323 109.776 32.7527 108.248 33.973 106.72C35.1934 104.886 36.4137 102.747 37.634 100.913C56.5493 70.9611 82.1765 49.5669 115.736 37.3416C176.753 15.9474 243.872 41.3148 276.821 77.9906C307.024 111.916 314.041 150.12 296.651 192.297C287.804 213.996 274.38 232.334 255.77 246.699C208.787 282.763 156.007 295.6 97.7358 281.235C62.0409 272.372 35.1934 251.283 18.4137 218.275C17.8035 217.053 17.1933 216.136 16.5832 214.913C16.5832 214.913 16.2781 214.608 14.7527 213.691ZM141.668 272.372C171.566 272.066 201.16 264.12 228.312 248.227C253.329 233.557 272.245 213.691 283.228 186.795C298.177 150.425 292.38 117.417 266.448 87.7708C254.245 73.7117 238.99 63.9315 222.211 56.5964C162.414 30.0065 96.8206 45.8993 58.3798 96.3284C42.5154 117.111 30.9222 140.339 22.3798 165.401C20.8544 169.68 20.5493 174.57 21.1594 178.849C26.9561 214.608 45.2612 241.503 77.9053 258.313C97.1256 268.704 118.177 272.372 141.668 272.372Z" fill="#B0DAB9"/>
</g>
<defs>
<clipPath id="clip0_158_4828">
<rect width="306" height="287" fill="white"/>
</clipPath>
</defs>
</svg>
