<svg width="258" height="225" viewBox="0 0 258 225" fill="none" xmlns="http://www.w3.org/2000/svg">
<g opacity="0.5" clip-path="url(#clip0_158_4826)">
<path d="M109.495 23.5275C114.278 23.7882 119.061 24.3096 123.592 24.5703C150.273 26.3952 175.445 33.4343 198.351 47.7731C222.515 62.6332 241.142 82.9683 251.714 110.342C264.048 141.888 258.259 169.001 234.094 192.204C231.577 194.55 228.808 196.896 226.039 199.243C209.678 212.017 190.799 219.578 170.662 222.706C137.436 227.92 104.965 224.27 73.5003 211.496C54.3699 203.675 38.0085 192.204 25.6744 174.736C4.53038 144.755 2.01323 112.949 19.3816 80.1005C25.6744 68.1081 33.981 57.4191 43.5462 48.0338C45.3082 46.2088 47.3219 44.3839 48.5805 41.2554C46.8185 41.2554 45.0565 40.9947 43.5462 41.5161C33.2259 45.166 22.6538 48.8159 12.5853 52.9872C5.0338 56.1156 2.26494 56.3763 0.502937 52.7265C-1.00735 49.0766 0.754652 46.2088 7.55095 42.2982C20.1367 34.4771 34.2327 30.5665 48.5805 27.9595C53.1113 27.1773 57.6422 26.3952 62.1731 25.8738C69.4728 25.0917 76.0174 23.0061 82.8137 19.6169C114.53 3.71387 147.756 -2.80376 182.745 1.10682C196.589 2.67105 209.93 6.84234 222.012 14.9242C224.277 16.4884 226.795 18.0527 228.053 20.399C229.06 22.2239 228.808 25.3524 227.55 26.9166C226.795 27.9595 223.774 27.9595 221.76 27.6988C220.753 27.6988 219.998 26.6559 218.991 26.1345C207.413 17.792 194.072 14.1421 180.479 12.8386C157.825 10.7529 135.422 13.36 113.775 20.1383C112.516 20.399 111.257 21.1811 109.999 21.7025C109.999 21.7025 109.999 22.2239 109.495 23.5275ZM147.253 212.799C152.79 212.278 163.111 211.757 173.431 209.671C196.085 205.239 216.223 195.593 232.081 177.344C243.156 164.569 248.442 149.709 245.673 132.242C242.653 114.253 234.598 98.6106 223.271 85.0539C205.902 63.9368 183.5 50.6408 157.825 43.0804C132.653 35.5199 106.978 35.5199 81.0517 36.5627C78.5346 36.5627 75.7657 37.8663 73.5003 39.1698C53.1113 52.7265 36.7499 69.933 26.4296 92.6144C17.3678 112.689 17.1161 133.024 26.4296 152.837C36.4982 174.215 52.8596 188.815 73.752 198.2C95.6512 207.846 118.557 212.017 147.253 212.799Z" fill="#B0DAB9"/>
</g>
<defs>
<clipPath id="clip0_158_4826">
<rect width="258" height="225" fill="white"/>
</clipPath>
</defs>
</svg>
