<svg width="694" height="89" viewBox="0 0 694 89" fill="none" xmlns="http://www.w3.org/2000/svg">
<g clip-path="url(#clip0_158_4791)">
<path d="M29.9361 85.2875C38.8989 83.2807 48.5884 82.478 57.7934 81.6753C63.1227 81.274 68.2097 81.0733 73.5389 80.8726C81.0483 80.4713 88.5576 80.2706 96.3092 80.2706C110.844 80.0699 125.136 79.8692 139.67 79.8692C168.496 79.8692 197.322 79.6685 226.391 78.4645C256.428 77.2604 286.224 76.0564 316.261 74.8523C344.603 73.6483 372.945 72.4442 401.529 71.6415C429.871 70.6381 458.455 69.8354 486.796 68.4307C515.865 66.8253 544.934 66.0225 574.002 65.4205C587.81 65.0192 601.617 64.6178 615.425 63.4138C622.692 62.8117 629.717 62.009 636.984 61.2063C644.009 60.4036 651.034 60.0023 658.059 59.4002C664.599 58.7982 670.897 58.9989 677.438 59.4002C682.04 58.9989 685.674 56.9921 688.096 53.5806C689.307 51.3732 690.761 49.3664 691.972 47.159C694.394 41.54 695.605 35.7204 695.363 29.7001C695.363 23.6798 694.394 17.8602 691.972 12.2413C690.761 10.0338 689.307 8.02706 688.096 5.81962C685.674 2.40812 682.282 0.602029 677.438 0C673.804 0.200676 670.413 0.602029 666.779 0.802706C663.63 1.00338 660.239 1.00338 657.09 1.00338C650.065 1.00338 643.282 1.20406 636.257 1.40474C621.723 1.80609 607.431 2.60879 592.897 3.01015C564.797 3.61218 536.697 3.81285 508.84 5.21759C493.821 6.02029 478.803 6.823 463.784 7.42503C450.219 8.02706 436.411 8.42841 422.846 8.82976C393.777 9.63247 364.709 10.8365 335.64 12.0406C307.056 13.2446 278.23 14.4487 249.646 15.6528C233.9 16.2548 217.913 17.0575 202.167 17.6595C187.875 18.2616 173.825 18.2616 159.533 18.4622C130.465 18.6629 101.396 18.8636 72.3277 20.2683C65.0606 20.6697 58.0357 21.071 51.0108 21.8737C45.1971 22.4758 39.3834 23.2785 33.8119 24.2819C29.4516 25.0846 25.0913 26.2886 20.9733 27.4927C18.5509 28.0947 16.1286 29.2988 13.9484 30.5028C9.58813 33.3123 6.68128 36.9245 4.98562 41.3393C1.10981 49.7678 0.625336 59.8016 2.321 68.6313C3.28995 73.8489 5.47009 78.8658 8.86142 83.2807C10.5571 84.6855 12.2527 86.0902 13.9484 87.4949C17.8242 89.5017 21.7 89.5017 25.3336 87.4949C26.3025 86.6922 28.2404 85.8895 29.9361 85.2875Z" fill="#B0DAB9"/>
</g>
<defs>
<clipPath id="clip0_158_4791">
<rect width="694" height="89" fill="white"/>
</clipPath>
</defs>
</svg>
