<svg width="596" height="89" viewBox="0 0 596 89" fill="none" xmlns="http://www.w3.org/2000/svg">
<g clip-path="url(#clip0_158_4793)">
<path d="M25.7093 85.2875C33.4065 83.2807 41.7277 82.478 49.6329 81.6753C54.2096 81.274 58.5782 81.0733 63.1549 80.8726C69.6039 80.4713 76.0529 80.2706 82.7099 80.2706C95.1917 80.0699 107.466 79.8692 119.947 79.8692C144.703 79.8692 169.459 79.6685 194.423 78.4645C220.219 77.2604 245.806 76.0564 271.602 74.8523C295.942 73.6483 320.282 72.4442 344.829 71.6415C369.169 70.6381 393.717 69.8354 418.056 68.4307C443.02 66.8253 467.984 66.0225 492.947 65.4205C504.805 65.0192 516.663 64.6178 528.521 63.4138C534.762 62.8117 540.795 62.009 547.036 61.2063C553.069 60.4036 559.101 60.0023 565.134 59.4002C570.751 58.7982 576.16 58.9989 581.777 59.4002C585.729 58.9989 588.85 56.9921 590.93 53.5806C591.97 51.3732 593.219 49.3664 594.259 47.159C596.339 41.54 597.379 35.7204 597.171 29.7001C597.171 23.6798 596.339 17.8602 594.259 12.2413C593.219 10.0338 591.97 8.02706 590.93 5.81962C588.85 2.40812 585.937 0.602029 581.777 0C578.656 0.200676 575.744 0.602029 572.623 0.802706C569.919 1.00338 567.007 1.00338 564.302 1.00338C558.269 1.00338 552.444 1.20406 546.412 1.40474C533.93 1.80609 521.656 2.60879 509.174 3.01015C485.042 3.61218 460.911 3.81285 436.987 5.21759C424.089 6.02029 411.191 6.823 398.293 7.42503C386.644 8.02706 374.786 8.42841 363.136 8.82976C338.172 9.63247 313.208 10.8365 288.245 12.0406C263.697 13.2446 238.941 14.4487 214.394 15.6528C200.872 16.2548 187.142 17.0575 173.62 17.6595C161.346 18.2616 149.28 18.2616 137.006 18.4622C112.042 18.6629 87.0785 18.8636 62.1148 20.2683C55.8738 20.6697 49.8409 21.071 43.808 21.8737C38.8153 22.4758 33.8225 23.2785 29.0378 24.2819C25.2932 25.0846 21.5487 26.2886 18.0122 27.4927C15.9318 28.0947 13.8515 29.2988 11.9792 30.5028C8.23468 33.3123 5.73831 36.9245 4.28209 41.3393C0.95359 49.7678 0.537528 59.8016 1.99375 68.6313C2.82587 73.8489 4.69815 78.8658 7.61059 83.2807C9.06681 84.6855 10.523 86.0902 11.9792 87.4949C15.3077 89.5017 18.6362 89.5017 21.7567 87.4949C22.5888 86.6922 24.2531 85.8895 25.7093 85.2875Z" fill="#FAFAFA"/>
</g>
<defs>
<clipPath id="clip0_158_4793">
<rect width="596" height="89" fill="white"/>
</clipPath>
</defs>
</svg>
