<svg width="104" height="107" viewBox="0 0 104 107" fill="none" xmlns="http://www.w3.org/2000/svg">
<path fill-rule="evenodd" clip-rule="evenodd" d="M96.2472 84.9488C87.5729 65.6034 71.2817 44.3124 51.1716 31.2411C37.5447 22.3878 22.1676 17.2926 6.22592 18.9095C4.8526 19.0508 3.85687 20.2779 3.99822 21.6513C4.13242 23.0316 5.35971 24.0272 6.73303 23.8858C21.5351 22.3774 35.7834 27.2063 48.4339 35.4341C67.7432 47.988 83.3644 68.4239 91.6718 86.9947C92.2457 88.2523 93.725 88.819 94.9825 88.2593C96.2401 87.6854 96.8069 86.2063 96.2472 84.9488Z" fill="black"/>
<path fill-rule="evenodd" clip-rule="evenodd" d="M87.1543 90.6065C79.1064 72.6973 64.0029 52.992 45.3691 40.9019C32.7425 32.7133 18.4979 28.0062 3.73558 29.5157C2.46385 29.6476 1.54264 30.7848 1.67458 32.0565C1.79991 33.3347 2.93726 34.2558 4.20899 34.1239C17.916 32.7157 31.1151 37.1769 42.8368 44.7872C60.7287 56.3987 75.211 75.3125 82.9186 92.5047C83.451 93.6689 84.8214 94.1926 85.9855 93.6733C87.1497 93.1408 87.6736 91.7706 87.1543 90.6065Z" fill="black"/>
</svg>
