<svg width="82" height="90" viewBox="0 0 82 90" fill="none" xmlns="http://www.w3.org/2000/svg">
<path fill-rule="evenodd" clip-rule="evenodd" d="M76.0029 71.5669C69.1031 55.2108 56.1444 37.2097 40.1481 26.1582C29.3088 18.673 17.0773 14.3651 4.39669 15.7321C3.3043 15.8516 2.51227 16.8891 2.6247 18.0503C2.73144 19.2173 3.70768 20.059 4.80007 19.9395C16.5741 18.6642 27.9078 22.7469 37.9704 29.7034C53.3298 40.3174 65.7554 57.5955 72.3635 73.2967C72.82 74.36 73.9966 74.8391 74.9969 74.3658C75.9972 73.8806 76.4481 72.6301 76.0029 71.5669Z" fill="black"/>
<path fill-rule="evenodd" clip-rule="evenodd" d="M68.7702 76.3506C62.3686 61.2087 50.3548 44.5484 35.5327 34.3264C25.4891 27.4031 14.1584 23.4234 2.41591 24.6996C1.40434 24.8112 0.671574 25.7727 0.776522 26.8479C0.876212 27.9286 1.7809 28.7073 2.79248 28.5958C13.6955 27.4052 24.1945 31.1771 33.5185 37.6114C47.7503 47.4286 59.27 63.4199 65.4009 77.9554C65.8245 78.9398 66.9145 79.3826 67.8405 78.9435C68.7666 78.4933 69.1833 77.3348 68.7702 76.3506Z" fill="black"/>
</svg>
