<svg width="43" height="43" viewBox="0 0 43 43" fill="none" xmlns="http://www.w3.org/2000/svg">
<path fill-rule="evenodd" clip-rule="evenodd" d="M4.69675 13.5485C5.9637 9.81493 6.76097 5.86545 7.50782 2.03217C7.66609 1.20634 7.19792 0.392533 6.45949 0.276156C5.72506 0.100234 4.9995 0.643577 4.84578 1.4099C4.12488 5.12546 3.36448 8.95735 2.14758 12.5152C1.8847 13.2732 2.24019 14.1387 2.94324 14.4319C3.64574 14.7251 4.43332 14.3065 4.69675 13.5485Z" fill="black"/>
<path fill-rule="evenodd" clip-rule="evenodd" d="M17.6419 26.1506C23.8197 20.4586 29.322 13.9368 35.644 8.37559C36.2324 7.88196 36.3346 6.93213 35.8691 6.29797C35.403 5.66376 34.5473 5.53864 33.9542 6.09178C27.6155 11.6517 22.0969 18.1723 15.9022 23.863C15.3222 24.4171 15.2417 25.3683 15.7219 26.0036C16.2061 26.5794 17.0619 26.7047 17.6419 26.1506Z" fill="black"/>
<path fill-rule="evenodd" clip-rule="evenodd" d="M38.7205 39.3163C35.4394 39.2447 32.1584 39.1728 28.8767 39.1011C28.1283 39.0439 27.4958 39.714 27.4684 40.5499C27.4415 41.3858 28.0331 42.0292 28.7821 42.0865C32.0686 42.1586 35.3545 42.2309 38.6405 42.3028C39.3935 42.3006 40.0222 41.6304 40.0453 40.7942C40.0637 40.0175 39.4729 39.314 38.7205 39.3163Z" fill="black"/>
</svg>
