<svg width="60" height="100" viewBox="0 0 60 100" fill="none" xmlns="http://www.w3.org/2000/svg">
<path fill-rule="evenodd" clip-rule="evenodd" d="M0.145933 87.2777C1.88639 91.2276 3.57411 95.1506 5.42664 99.0467C5.8222 99.8864 6.80439 100.236 7.62187 99.8326C8.44595 99.4296 8.78888 98.4221 8.39332 97.5891C6.55398 93.7131 4.87948 89.8238 3.15221 85.9008C2.77643 85.0544 1.80069 84.678 0.976611 85.0542C0.14594 85.4371 -0.229847 86.4313 0.145933 87.2777Z" fill="black"/>
<path fill-rule="evenodd" clip-rule="evenodd" d="M20.735 58.2582C32.9248 63.9949 45.3915 69.1004 57.6933 74.5684C58.5306 74.9379 59.4997 74.5483 59.8623 73.7019C60.2249 72.8487 59.8491 71.8614 59.0118 71.4852C46.7298 66.0306 34.2829 60.9388 22.1195 55.2088C21.2888 54.8192 20.3131 55.1885 19.9307 56.0281C19.5483 56.8745 19.9109 57.8686 20.735 58.2582Z" fill="black"/>
<path fill-rule="evenodd" clip-rule="evenodd" d="M23.8997 9.03945C35.1072 7.20558 46.2817 5.04928 57.509 3.34305C58.4056 3.20198 59.0252 2.34896 58.8933 1.43539C58.7615 0.515094 57.9177 -0.116257 57.0211 0.0180922C45.7807 1.73105 34.5929 3.88736 23.3723 5.72795C22.4757 5.87573 21.8625 6.73547 22.0076 7.64905C22.1526 8.56935 22.9965 9.18723 23.8997 9.03945Z" fill="black"/>
</svg>
