<svg width="40" height="40" viewBox="0 0 40 40" fill="none" xmlns="http://www.w3.org/2000/svg">
<path fill-rule="evenodd" clip-rule="evenodd" d="M36.4346 19.0067C35.1923 24.1755 35.2737 29.1532 35.1248 34.396C35.0959 35.4199 35.8819 36.2712 36.8795 36.302C37.8777 36.3329 38.7107 35.5248 38.7402 34.5009C38.8813 29.5294 38.7674 24.7985 39.9464 19.8887C40.1851 18.8957 39.5913 17.8903 38.6221 17.6497C37.6534 17.403 36.6727 18.0136 36.4346 19.0067Z" fill="black"/>
<path fill-rule="evenodd" clip-rule="evenodd" d="M25.8806 8.98973C17.4527 16.8725 9.51174 27.0129 3.96143 37.2519C3.4774 38.1463 3.79267 39.2751 4.66548 39.7685C5.53829 40.262 6.64015 39.9412 7.12417 39.0468C12.4912 29.147 20.1711 19.3397 28.3206 11.7222C29.0572 11.0313 29.1084 9.8594 28.4351 9.10689C27.7618 8.35438 26.6172 8.29891 25.8806 8.98973Z" fill="black"/>
<path fill-rule="evenodd" clip-rule="evenodd" d="M23.746 0.379071C16.0377 -0.922395 8.09262 1.29809 1.0836 4.43765C0.169197 4.85091 -0.247933 5.94263 0.151704 6.87401C0.551944 7.81156 1.61947 8.23719 2.53387 7.8301C8.91722 4.9681 16.1366 2.84626 23.1571 4.03053C24.142 4.19707 25.0733 3.51243 25.2354 2.50703C25.3982 1.50163 24.7303 0.54561 23.746 0.379071Z" fill="black"/>
</svg>
