<svg width="402" height="38" viewBox="0 0 402 38" fill="none" xmlns="http://www.w3.org/2000/svg">
<g clip-path="url(#clip0_158_4853)">
<path d="M13.6989 29.8647C14.7615 29.1603 15.824 28.456 16.8865 27.6108C17.949 26.7655 19.1633 26.0612 20.2259 25.2159C22.8063 23.2437 25.3867 21.2715 27.9671 19.2994C27.3599 20.1446 26.601 20.9898 25.9938 21.835C25.3867 22.6803 24.7795 23.3846 24.0206 24.2298C23.717 24.6525 23.2616 25.0751 22.9581 25.4977C22.5027 25.9203 22.1991 26.4838 22.0473 27.0473C21.7437 27.6108 21.592 28.0334 21.4402 28.5968C21.1366 29.4421 21.4402 30.569 22.1991 31.1325C22.5027 31.4143 22.9581 31.696 23.4134 31.8369C23.8688 31.9778 24.4759 31.9778 24.9313 31.8369C25.5385 31.696 26.1456 31.696 26.7528 31.5551C27.2081 31.4143 27.5117 31.2734 27.9671 31.1325C28.4224 30.9917 28.8778 30.8508 29.1814 30.569C30.5475 30.0056 31.7618 29.1603 33.1279 28.3151C34.494 27.4699 36.0119 26.6247 37.378 25.6386C38.8959 24.6525 40.262 23.6664 41.6281 22.6803C42.9942 21.835 44.2085 20.8489 45.4228 19.8628C45.271 20.0037 45.1192 20.1446 45.1192 20.2854C43.9049 21.6942 42.6906 23.2437 41.4763 24.6525C40.7173 25.4977 39.9584 26.3429 39.3512 27.1881C39.0477 27.6108 38.7441 28.1742 38.4405 28.7377C38.2887 29.1603 38.1369 29.5829 38.1369 30.0056C38.1369 30.4282 37.9851 30.8508 37.8334 31.2734C37.6816 31.9778 37.6816 32.5412 38.1369 33.1047C38.4405 33.5273 39.0477 34.0908 39.6548 34.2317C40.5656 34.3726 41.4763 34.5134 42.5388 34.6543C42.9942 34.6543 43.4495 34.7952 43.9049 34.6543C44.3603 34.6543 44.8156 34.5134 45.271 34.5134C46.1817 34.3726 46.9407 34.0908 47.6996 33.8091C48.6104 33.5273 49.3693 33.1047 50.1282 32.823C53.4676 31.2734 56.8069 29.4421 59.9945 27.6108C61.5124 26.7655 62.8785 25.7794 64.3964 24.9342C63.4857 26.0612 62.4231 27.1881 61.5124 28.3151C60.9052 29.0195 60.2981 29.7238 59.6909 30.4282C59.0838 31.1325 58.6284 31.696 58.3248 32.5412C58.0213 33.2456 57.8695 33.95 57.7177 34.6543C57.5659 35.6404 57.7177 36.4856 58.4766 37.19C58.7802 37.4717 59.2356 37.7535 59.6909 37.8943C60.1463 38.0352 60.7535 38.0352 61.2088 37.8943C61.5124 37.8943 61.816 37.7535 61.9678 37.7535C62.8785 37.6126 63.7892 37.4717 64.5482 37.3309C65.4589 37.19 66.3696 36.9082 67.2804 36.4856C69.1018 35.7813 70.7715 34.9361 72.4412 34.0908C75.7805 32.2595 78.9681 30.2873 82.1557 28.3151C82.611 28.0334 83.0664 27.7516 83.5218 27.329C83.5218 27.329 83.5218 27.4699 83.37 27.4699C83.0664 27.8925 82.7628 28.456 82.611 28.8786C82.3075 29.7238 82.611 30.569 82.7628 31.4143C83.0664 32.823 84.7361 33.5273 86.254 33.2456C87.1647 32.9639 88.0754 32.823 88.9862 32.5412C90.0487 32.2595 91.1112 31.8369 92.1737 31.2734C94.2988 30.4282 96.272 29.1603 98.0935 28.0334C99.6114 27.1881 100.977 26.202 102.495 25.3568C105.379 23.6664 108.112 21.9759 110.996 20.1446C112.513 19.1585 114.183 18.0315 115.701 17.0454C115.094 17.7498 114.335 18.595 113.728 19.2994C113.424 19.5811 113.121 20.0037 112.817 20.2854C112.058 20.9898 111.451 21.6942 110.844 22.3985C110.237 23.2437 110.085 24.2298 110.085 25.2159C110.085 25.6386 110.237 26.0612 110.237 26.4838C110.237 26.6247 110.388 26.9064 110.388 27.0473C110.54 27.4699 110.692 27.7516 110.844 28.1742C110.996 28.5968 111.299 29.0195 111.603 29.4421C112.058 29.8647 112.969 30.2873 113.728 30.2873C115.397 30.1464 117.219 30.0056 119.04 29.7238C120.71 29.4421 122.38 28.8786 123.898 28.1742C127.085 26.9064 130.121 25.3568 133.157 23.6664C135.282 22.5394 137.407 21.2715 139.532 20.0037C139.076 20.5672 138.469 20.9898 138.014 21.5533C137.103 22.5394 136.041 23.5255 135.13 24.5116C134.371 25.2159 133.764 25.9203 133.005 26.6247C131.942 27.7516 131.032 29.0195 130.121 30.2873C129.362 31.4143 129.817 33.3865 131.183 33.95C131.639 34.0908 131.942 34.3726 132.398 34.5134C132.853 34.6543 133.308 34.7952 133.764 34.9361C134.675 35.0769 135.585 34.9361 136.648 34.7952C137.559 34.6543 138.469 34.2317 139.228 33.8091C140.291 33.3865 141.353 32.823 142.264 32.2595C143.175 31.8369 143.934 31.4143 144.844 30.9917C145.755 30.569 146.514 30.1464 147.425 29.5829C148.943 28.7377 150.461 27.8925 151.827 27.0473C152.282 26.7655 152.737 26.4838 153.041 26.202C152.889 26.6247 152.586 26.9064 152.434 27.329C151.979 28.1742 151.827 29.1603 152.434 30.0056C153.041 30.8508 153.952 31.2734 155.014 31.2734C155.773 31.2734 156.38 31.4143 156.988 31.4143C157.443 31.4143 157.898 31.2734 158.354 31.2734C158.809 31.1325 159.264 31.1325 159.568 30.9917C160.479 30.7099 161.238 30.2873 162.148 30.0056C162.907 29.5829 163.818 29.1603 164.577 28.7377C166.247 27.8925 167.765 26.9064 169.434 26.0612C171.104 25.0751 172.925 24.089 174.595 23.1029C178.086 20.9898 181.426 18.7359 184.917 16.6228C185.524 16.2002 185.979 15.9184 186.586 15.4958C186.435 15.6367 186.283 15.7776 186.283 15.9184C185.068 17.3272 183.702 18.8767 182.488 20.4263C181.881 21.1307 181.274 21.9759 180.515 22.6803C179.756 23.6664 178.845 24.5116 178.086 25.3568C177.783 25.7794 177.327 26.3429 177.024 26.9064C176.568 27.6108 176.265 28.456 175.961 29.3012C175.658 29.8647 175.961 30.7099 176.265 31.2734C176.72 31.9778 177.631 32.5412 178.693 32.5412C179.149 32.5412 179.604 32.5412 179.908 32.5412C180.363 32.5412 180.818 32.5412 181.122 32.5412C182.184 32.5412 183.247 32.2595 184.31 31.9778C185.22 31.696 185.979 31.4143 186.89 30.9917C187.952 30.569 188.863 30.1464 189.926 29.5829C193.72 27.6108 197.363 25.6386 201.006 23.5255C204.497 21.4124 207.989 19.2994 211.48 17.0454C213.149 15.9184 214.819 14.7915 216.489 13.8054L216.337 13.9462C215.426 15.0732 214.364 16.2002 213.453 17.3272C212.846 18.0315 212.239 18.7359 211.632 19.4402C211.328 19.722 211.176 20.0037 211.024 20.2854C210.873 20.5672 210.721 20.9898 210.569 21.2715C210.417 21.5533 210.417 21.9759 210.569 22.3985C210.569 22.962 210.873 23.3846 211.024 23.9481C211.48 25.0751 212.694 25.9203 214.06 25.4977C215.73 25.0751 217.399 24.6525 219.069 24.2298C220.739 23.8072 222.257 23.1029 223.775 22.3985C225.748 21.5533 227.721 20.5672 229.543 19.722C231.971 18.595 234.248 17.468 236.677 16.2002C238.953 15.0732 241.079 13.9462 243.355 12.8193C242.748 13.3828 241.989 13.9462 241.382 14.5097C239.561 16.2002 237.587 17.7498 235.766 19.4402C233.641 21.2715 231.668 23.1029 229.543 24.9342C228.328 26.0612 227.114 27.1881 225.9 28.3151C225.141 29.0195 224.23 29.7238 223.471 30.4282C223.167 30.7099 223.016 30.9917 222.864 31.2734C222.712 31.5551 222.56 31.8369 222.409 32.2595C222.257 32.5412 222.257 32.9639 222.257 33.2456C222.257 33.8091 222.409 34.2317 222.409 34.7952C222.409 35.3587 222.56 35.9221 223.167 36.3448C223.775 36.9082 224.685 37.0491 225.444 36.9082C226.81 36.6265 228.328 36.3448 229.694 36.063C231.06 35.7813 232.427 35.3587 233.793 34.7952C236.677 33.6682 239.561 32.4004 242.293 30.9917C243.507 30.4282 244.873 29.7238 246.088 29.0195C246.998 28.456 248.061 27.8925 248.972 27.4699C250.034 26.9064 251.097 26.3429 252.311 25.6386C252.007 25.9203 251.552 26.202 251.248 26.4838C250.793 26.7655 250.338 27.0473 250.034 27.4699C249.731 27.7516 249.579 28.0334 249.275 28.3151C249.123 28.5968 248.972 28.8786 248.82 29.3012C248.668 29.7238 248.668 30.2873 248.82 30.7099C248.82 31.1325 248.972 31.4143 249.123 31.696C249.579 32.5412 250.338 33.2456 251.4 33.6682C252.766 34.0908 254.132 33.95 255.65 33.5273C256.409 33.3865 257.168 32.9639 257.927 32.6821C258.686 32.4004 259.293 32.1186 260.052 31.8369C262.177 30.9917 264.302 30.1464 266.427 29.3012C268.704 28.3151 270.829 27.1881 272.954 26.202C274.32 25.4977 275.686 24.7933 277.052 24.089C280.088 22.5394 283.124 20.8489 286.16 19.1585C288.133 18.0315 290.258 16.7637 292.231 15.6367C291.472 16.3411 290.865 17.1863 290.106 17.8906C289.347 18.595 288.588 19.4402 287.829 20.1446C287.071 20.9898 286.312 21.835 285.553 22.6803C284.794 23.5255 284.338 24.5116 283.731 25.4977C282.82 26.9064 283.579 28.8786 285.401 29.3012C286.008 29.4421 286.615 29.5829 287.374 29.7238C287.829 29.8647 288.285 29.8647 288.74 29.8647C289.196 29.8647 289.651 29.7238 290.106 29.7238C291.017 29.5829 291.776 29.3012 292.687 28.8786C293.446 28.5968 294.356 28.1742 295.115 27.7516C296.633 27.0473 297.999 26.3429 299.517 25.6386C301.339 24.7933 303.008 23.8072 304.83 22.8211C306.348 21.9759 307.866 21.1307 309.383 20.2854C309.232 20.4263 309.08 20.5672 308.928 20.7081C308.169 21.4124 307.41 22.2576 306.651 23.1029C305.892 23.9481 305.285 24.9342 305.285 26.0612C305.285 26.7655 305.589 27.1881 305.892 27.7516C306.044 28.1742 306.803 28.8786 307.258 29.0195C307.41 29.0195 307.562 29.1603 307.562 29.1603C308.017 29.4421 308.473 29.5829 309.08 29.5829C309.687 29.5829 310.294 29.5829 310.75 29.4421C311.964 29.1603 313.026 28.7377 314.089 28.1742C314.696 27.8925 315.303 27.6108 315.91 27.329C316.518 27.0473 317.277 26.6247 317.884 26.3429C319.098 25.6386 320.464 24.9342 321.678 24.2298C322.134 23.9481 322.589 23.6664 323.044 23.3846C322.741 23.6664 322.437 24.089 322.134 24.3707C321.678 24.9342 321.071 25.4977 320.616 26.0612C319.857 26.9064 319.098 27.6108 318.339 28.456C317.58 29.3012 316.973 30.1464 316.366 30.9917C315.91 31.5551 315.91 32.4004 316.062 32.9639C316.214 33.5273 316.669 34.2317 317.277 34.5134C317.58 34.6543 317.884 34.7952 318.339 34.9361C318.794 35.0769 319.098 35.2178 319.553 35.3587C320.009 35.4995 320.312 35.4995 320.768 35.4995C321.527 35.4995 322.134 35.3587 322.741 35.3587C323.803 35.2178 325.018 34.7952 326.08 34.3726C327.143 33.95 328.205 33.3865 329.268 32.9639C330.179 32.5412 331.089 32.2595 332 31.8369C333.063 31.4143 334.277 30.8508 335.339 30.2873C337.161 29.4421 338.982 28.5968 340.652 27.6108C342.018 26.9064 343.232 26.202 344.598 25.4977C344.447 25.6386 344.447 25.7794 344.295 25.9203C343.536 26.9064 343.84 28.456 344.75 29.3012C345.509 30.0056 346.42 30.7099 347.482 31.1325C348.09 31.2734 348.697 31.2734 349.304 31.2734C350.215 31.2734 350.974 30.9917 351.884 30.7099C352.491 30.569 353.099 30.2873 353.554 30.0056C354.161 29.7238 354.92 29.5829 355.527 29.3012C357.045 28.7377 358.411 28.0334 359.929 27.1881C362.054 26.0612 364.179 24.7933 366.304 23.5255C366.152 23.9481 366.153 24.3707 366.153 24.7933C366.153 25.2159 366.304 25.7794 366.456 26.202C366.608 26.4838 366.608 26.6247 366.76 26.9064C366.911 27.1881 367.215 27.4699 367.367 27.7516C367.822 28.1742 368.581 28.456 369.188 28.5968C369.492 28.5968 369.795 28.5968 369.947 28.7377C370.251 28.7377 370.706 28.7377 371.01 28.7377C371.769 28.5968 372.376 28.5968 372.983 28.3151C375.412 27.7516 377.84 26.6247 380.117 25.4977C382.697 24.2298 385.278 22.8211 387.707 21.4124C389.528 20.4263 391.198 19.2994 393.019 18.3133C393.171 18.1724 393.323 18.1724 393.474 18.0315C393.474 18.1724 393.323 18.3133 393.323 18.3133C392.412 19.722 393.019 21.6942 394.537 22.5394C395.296 22.962 396.207 23.1029 397.117 22.8211C397.876 22.6803 398.787 22.1168 399.091 21.4124C399.698 20.0037 400.305 18.7359 400.912 17.3272C401.216 16.7637 401.367 16.0593 401.671 15.4958C401.823 15.0732 401.975 14.7915 402.126 14.3689C402.43 13.5236 402.582 12.5375 402.582 11.5514C402.582 10.8471 402.278 10.1427 401.823 9.72011C401.064 9.01576 400.001 8.73401 399.091 9.01576C398.18 9.2975 397.269 9.57924 396.51 9.86098C395.751 10.1427 395.144 10.7062 394.385 11.1288C393.626 11.5514 393.019 11.974 392.26 12.2558C391.198 12.9601 389.983 13.5236 388.921 14.228C387.403 15.0732 385.885 15.9184 384.519 16.7637C382.849 17.7498 381.18 18.595 379.358 19.5811C378.447 20.0037 377.688 20.4263 376.778 20.8489C376.322 21.1307 375.867 21.2715 375.412 21.5533C376.626 20.1446 377.992 18.7359 379.206 17.3272C381.18 15.2141 383.153 13.2419 384.974 11.1288C385.278 10.8471 385.581 10.4245 385.733 10.0019C385.885 9.2975 385.885 8.59314 385.43 8.02966C385.126 7.46617 384.367 7.04356 383.76 6.76182C383.153 6.62095 382.09 6.62095 381.635 7.04356C378.599 9.15663 375.412 11.2697 372.376 13.2419C370.554 14.5097 368.581 15.6367 366.76 16.9045C364.483 18.3133 362.206 19.722 359.777 21.1307C358.259 21.9759 356.742 22.8211 355.224 23.5255C355.831 23.1029 356.286 22.5394 356.893 22.1168C358.108 20.9898 359.322 20.0037 360.536 19.0176C363.42 16.6228 366.152 14.0871 369.036 11.8332C369.188 11.6923 369.34 11.5514 369.492 11.4106C370.554 10.4245 370.554 8.73401 369.492 7.74791C369.036 7.3253 368.278 7.04356 367.519 7.04356C366.76 7.04356 366.152 7.3253 365.545 7.74791C365.394 7.88879 365.242 8.02966 365.09 8.17053C363.572 9.15663 361.902 10.1427 360.385 10.988C359.17 11.6923 357.804 12.5375 356.59 13.2419C353.858 14.7915 351.277 16.3411 348.545 17.8906C347.786 18.3133 346.875 18.7359 346.116 19.1585C344.143 20.1446 342.322 21.2715 340.348 22.2576C338.831 23.1029 337.313 23.9481 335.643 24.6525C333.67 25.6386 331.696 26.6247 329.723 27.4699C328.812 27.8925 327.902 28.1742 327.143 28.5968C326.536 28.8786 325.777 29.1603 325.17 29.4421C325.928 28.5968 326.687 27.7516 327.598 26.9064C328.509 25.9203 329.42 24.9342 330.33 23.9481C331.696 22.5394 333.063 21.2715 334.277 19.8628C335.339 18.8767 336.402 17.7498 337.464 16.7637C338.223 15.9184 338.982 15.0732 339.741 14.228C340.348 13.5236 340.956 12.6784 341.563 11.8332C342.018 11.1288 342.018 10.1427 341.563 9.43837C341.259 9.01576 340.956 8.73401 340.652 8.59314C340.045 8.3114 339.286 8.17053 338.679 8.3114C338.223 8.45227 337.768 8.59314 337.464 8.73401C336.857 9.01576 336.402 9.2975 335.795 9.57924C335.188 10.0019 334.58 10.4245 333.973 10.7062C332.911 11.4106 332 11.9741 330.938 12.6784C329.42 13.6645 327.75 14.6506 326.232 15.6367C324.411 16.7637 322.437 17.8906 320.616 19.0176C319.553 19.5811 318.643 20.1446 317.58 20.7081C317.428 20.7081 317.428 20.8489 317.277 20.8489C318.491 19.722 319.553 18.595 320.768 17.468C321.83 16.3411 323.044 15.2141 324.107 14.0871C325.018 13.2419 325.777 12.3967 326.687 11.5514C327.598 10.5653 328.509 9.57924 329.571 8.59314C329.875 8.3114 330.179 7.88879 330.33 7.46617C330.482 6.76182 330.482 6.05746 330.027 5.49398C329.42 4.50788 328.054 3.94439 326.839 4.36701C326.384 4.50788 325.777 4.64875 325.321 4.93049C324.562 5.3531 323.803 5.77572 323.196 6.19833C322.741 6.48007 322.134 6.76182 321.678 7.04356C320.616 7.60704 319.553 8.3114 318.491 8.87488C316.518 10.0019 314.544 11.2697 312.571 12.3967C310.142 13.8054 307.562 15.2141 305.133 16.6228C303.16 17.7498 301.187 18.7359 299.214 19.8628C297.696 20.7081 296.178 21.4124 294.508 22.1168C293.901 22.3985 293.294 22.6803 292.535 23.1029C292.99 22.6803 293.294 22.2576 293.749 21.835C294.356 21.1307 295.115 20.4263 295.722 19.722C296.633 18.7359 297.544 17.7498 298.455 16.7637C299.821 15.2141 301.187 13.8054 302.553 12.2558C303.16 11.5514 303.767 10.8471 304.526 10.2836C305.285 9.57924 305.892 8.87488 306.5 8.02966C307.107 7.3253 307.41 6.48007 307.714 5.63485C307.866 4.78962 307.714 3.80352 306.955 3.24004C306.196 2.53568 304.678 2.25394 303.767 2.81742C297.392 6.48007 291.017 10.2836 284.49 13.9462C283.428 14.6506 282.213 15.2141 281.151 15.7776C279.329 16.7637 277.66 17.6089 275.838 18.595C270.829 21.2715 265.82 23.8072 260.659 25.9203C261.57 25.2159 262.329 24.5116 263.24 23.9481C265.668 21.9759 268.097 20.1446 270.526 18.3133C273.41 16.0593 276.294 13.8054 279.178 11.5514C280.544 10.4245 281.91 9.2975 283.428 8.3114C284.338 7.60704 285.249 6.90269 286.16 6.19833C287.071 5.63485 287.981 4.78962 288.892 4.08526C289.803 3.38091 289.803 2.11307 289.347 1.26784C289.044 0.704356 288.437 0.281742 287.829 0.140871C287.071 0 286.767 0 286.615 0C286.16 0 285.704 0.140871 285.401 0.281742C284.187 1.12697 283.124 1.83133 281.91 2.67655C281.454 3.09917 280.999 3.38091 280.544 3.80352C279.178 4.64875 277.811 5.49398 276.294 6.3392C274.624 7.3253 272.954 8.3114 271.285 9.43837C267.642 11.6923 263.847 13.8054 260.204 16.0593C258.99 16.7637 257.775 17.468 256.561 18.1724C254.436 19.2994 252.311 20.4263 250.338 21.5533C248.061 22.8211 245.936 23.9481 243.659 25.2159C242.596 25.7794 241.534 26.3429 240.471 26.9064C237.739 28.3151 235.159 29.5829 232.275 30.7099C231.212 31.1325 229.998 31.4143 228.935 31.8369L229.087 31.696C229.543 31.2734 229.998 30.8508 230.453 30.4282C231.516 29.4421 232.427 28.456 233.489 27.4699C235.614 25.4977 237.739 23.6664 239.864 21.6942C241.837 19.8628 243.811 18.1724 245.784 16.4819C246.695 15.7776 247.454 14.9323 248.364 14.228C249.73 13.101 251.097 11.8332 252.311 10.7062C252.918 10.1427 253.525 9.57924 253.981 8.87488C254.588 8.17053 255.043 7.46617 255.498 6.76182C256.561 5.35311 254.891 3.24004 253.07 3.80352C251.704 4.22614 250.489 4.64875 249.123 5.21223C248.213 5.63485 247.302 6.19833 246.391 6.62095C245.025 7.3253 243.659 8.02966 242.141 8.73401C240.016 9.72011 238.043 10.7062 235.918 11.8332C234.096 12.6784 232.275 13.6645 230.302 14.5097C226.81 16.2002 223.319 17.8906 219.828 19.2994C219.069 19.5811 218.31 19.8628 217.399 20.1446C217.551 19.8628 217.855 19.5811 218.007 19.2994C218.917 18.1724 219.98 17.0454 220.891 15.9184C221.953 14.7915 222.864 13.6645 223.926 12.3967C224.534 11.6923 225.141 10.988 225.748 10.1427C226.355 9.57924 226.81 8.87488 227.266 8.17053C228.025 7.3253 228.48 6.3392 228.935 5.3531C229.391 4.64875 229.391 3.80352 228.935 3.09917C228.48 2.25394 227.266 1.69045 226.203 2.11307C225.444 2.39481 224.685 2.67655 223.926 3.09917C223.319 3.38091 222.864 3.80352 222.257 4.22614C221.65 4.64875 220.891 5.07136 220.283 5.49398C219.069 6.3392 217.855 7.04356 216.641 7.74791C214.06 9.43837 211.632 10.988 209.051 12.5375C206.471 14.0871 203.89 15.6367 201.31 17.1863C198.881 18.595 196.301 20.0037 193.872 21.4124C192.203 22.2576 190.533 23.1029 188.863 23.9481C187.194 24.7933 185.372 25.7794 183.702 26.4838C183.551 26.4838 183.551 26.4838 183.399 26.6247C183.702 26.202 184.158 25.7794 184.461 25.3568C185.372 24.3707 186.131 23.2437 187.042 22.2576C188.408 20.7081 189.774 19.1585 190.988 17.6089C192.051 16.3411 193.265 15.0732 194.328 13.6645C195.238 12.6784 195.997 11.6923 196.908 10.5653C198.122 9.15663 199.337 7.60704 200.399 6.05746C200.855 5.49398 200.855 4.78962 200.703 4.08526C200.551 3.52178 200.096 2.81742 199.488 2.53568C199.033 2.39481 198.729 2.25394 198.274 2.11307C197.363 1.9722 196.604 2.11307 195.845 2.53568C194.783 3.09917 194.024 3.80352 193.113 4.50788C189.47 6.90269 185.827 9.2975 182.184 11.6923C179.908 13.101 177.631 14.5097 175.354 15.9184C172.47 17.7498 169.434 19.4402 166.398 21.1307C165.336 21.6942 164.273 22.2576 163.211 22.8211C163.818 22.2576 164.425 21.6942 165.032 20.9898C166.398 19.5811 167.765 18.3133 169.282 16.9045C170.193 16.0593 171.104 15.2141 171.863 14.3689C172.622 13.6645 173.381 12.8193 174.14 11.9741C174.747 11.2697 175.202 10.4245 175.809 9.72011C176.417 8.73401 176.265 7.3253 175.354 6.48007C175.05 6.19833 174.595 5.91659 174.14 5.77572C173.533 5.63485 172.47 5.63485 172.015 6.05746C170.193 7.3253 168.372 8.59314 166.702 9.86098C165.184 10.988 163.514 12.1149 161.845 13.2419C160.479 14.0871 159.264 15.0732 157.898 15.9184C157.291 16.3411 156.684 16.7637 156.077 17.1863C153.648 18.7359 151.22 20.2854 148.791 21.6942C147.121 22.6803 145.452 23.6664 143.63 24.6525C142.416 25.3568 141.05 26.0612 139.835 26.6247C140.594 25.7794 141.353 24.9342 142.264 24.089C143.782 22.3985 145.452 20.8489 147.121 19.1585C148.487 17.7498 150.005 16.3411 151.371 14.9323C152.13 14.0871 153.041 13.3828 153.8 12.5375C155.47 10.8471 157.443 9.57924 158.809 7.60704C159.416 6.62095 159.264 5.3531 158.354 4.50788C157.443 3.66265 156.077 3.52178 155.014 4.08526C150.916 6.62095 146.666 9.01576 142.568 11.4106C140.443 12.6784 138.318 13.8054 136.192 15.0732C133.764 16.4819 131.487 17.7498 129.058 19.0176C127.692 19.722 126.478 20.2854 125.112 20.9898C123.746 21.6942 122.38 22.2576 120.862 22.8211C120.255 23.1029 119.648 23.2437 119.04 23.3846C118.281 23.6664 117.371 23.8072 116.612 23.9481C116.46 23.9481 116.46 23.9481 116.308 23.9481C116.764 23.5255 117.067 23.1029 117.522 22.6803C118.13 21.9759 118.737 21.2715 119.496 20.5672C120.406 19.5811 121.317 18.595 122.076 17.6089C123.29 16.2002 124.505 14.9323 125.719 13.5236C126.782 12.2558 127.996 11.1288 129.21 9.86098C129.969 9.01576 130.728 8.17053 131.487 7.18443C132.094 6.3392 132.701 5.49398 133.309 4.64875C134.067 3.66265 133.764 2.25394 132.853 1.54958C131.942 0.704356 130.576 0.563485 129.514 1.12697C128.755 1.54958 127.996 1.9722 127.237 2.39481C126.782 3.66265 125.871 4.22614 124.96 4.93049C124.201 5.49398 123.442 5.91659 122.683 6.48007C121.014 7.60704 119.192 8.73401 117.522 10.0019C114.79 11.8332 112.058 13.6645 109.174 15.4958C106.745 17.0454 104.165 18.595 101.736 20.1446C100.067 21.1307 98.5489 22.1168 96.8792 23.1029C95.9685 23.6664 95.0577 24.089 94.2988 24.6525C93.6916 25.0751 92.9327 25.3568 92.3255 25.7794C96.5756 20.8489 100.977 16.0593 105.379 11.2697C105.835 10.7062 106.138 10.1427 106.138 9.43837C106.138 8.87488 105.835 8.17053 105.379 7.74791C104.317 6.76182 102.799 6.90269 101.736 7.74791C100.826 8.45227 100.067 9.2975 99.156 9.86098C98.7007 10.2836 98.0935 10.5653 97.6381 10.988C96.7274 11.6923 95.9685 12.2558 95.0577 12.9601C93.0845 14.3689 91.263 15.7776 89.2898 17.3272C86.8611 19.0176 84.4325 20.7081 82.0039 22.3985C80.0306 23.8072 78.0574 25.0751 75.9323 26.3429C74.2627 27.329 72.593 28.1742 70.9233 29.1603C69.2536 30.1464 67.584 30.9917 65.7625 31.696C66.6732 30.569 67.7357 29.3012 68.6465 28.1742C70.6197 25.7794 72.7448 23.5255 74.718 21.1307C76.2359 19.4402 77.9056 17.7498 79.4235 16.0593C80.1824 15.2141 81.0932 14.3689 81.8521 13.5236C82.3075 12.9601 82.9146 12.3967 83.5218 11.9741C83.6736 11.8332 83.9771 11.6923 84.1289 11.5514C84.7361 11.1288 85.1915 10.7062 85.7986 10.2836C86.4058 9.86098 86.8611 9.2975 87.3165 8.87488C87.6201 8.59314 87.9237 8.17053 87.9237 7.74791C88.0754 7.18443 88.0754 6.48007 87.6201 5.91659C87.3165 5.3531 86.7093 4.93049 86.1022 4.78962C85.495 4.64875 84.5843 4.64875 84.1289 5.07136C83.6736 5.49398 83.0664 5.77572 82.611 6.05746C81.8521 6.62095 81.2449 7.04356 80.6378 7.60704C80.1824 8.02966 79.7271 8.45227 79.2717 9.01576C78.361 9.72011 77.4502 10.2836 76.6913 10.988C74.8698 12.2558 73.0484 13.5236 71.2269 14.7915C69.709 15.7776 68.1911 16.7637 66.6732 17.7498C64.7 19.0176 62.8785 20.2854 60.9052 21.4124C58.4766 22.962 56.048 24.3707 53.4676 25.7794C52.2533 26.4838 51.039 27.0473 49.6729 27.7516C48.3068 28.3151 47.0925 29.0195 45.7264 29.5829C44.9674 29.8647 44.2085 30.0056 43.6013 30.2873C43.7531 30.1464 43.9049 30.0056 43.9049 29.7238C44.9674 28.456 45.8782 27.329 46.9407 26.0612C47.6996 25.0751 48.4586 24.089 49.3693 23.1029C51.039 21.1307 52.5569 19.2994 54.2265 17.3272C55.2891 16.0593 56.5034 14.6506 57.5659 13.3828C58.173 12.6784 58.7802 11.9741 59.3874 11.2697C60.2981 10.1427 61.2088 9.01576 61.9678 7.74791C62.5749 6.90269 62.2713 5.63485 61.5124 4.93049C60.7535 4.22614 59.3874 3.94439 58.4766 4.50788C57.5659 5.07136 56.807 5.49398 56.048 6.19833C55.5926 6.62095 55.1373 6.90269 54.5301 7.3253C53.7712 7.88879 52.8604 8.59314 52.1015 9.15663C50.28 10.4245 48.4586 11.8332 46.6371 13.101C44.3603 14.6506 42.2352 16.2002 39.9584 17.7498C38.1369 19.0176 36.1637 20.2855 34.3422 21.5533C33.7351 21.9759 32.9761 22.3985 32.369 22.8211C32.9761 22.1168 33.5833 21.4124 34.0386 20.7081C35.1012 19.2994 36.3155 17.8906 37.378 16.4819C37.9851 15.6367 38.7441 14.7915 39.3512 13.9462C40.1102 13.101 40.7173 12.1149 41.3245 11.1288C42.0834 10.0019 42.5388 8.73401 42.9942 7.60704C43.146 7.18443 43.146 6.76182 42.9942 6.19833C42.8424 5.77572 42.6906 5.3531 42.2352 5.07136C41.3245 4.22614 39.9584 4.08526 38.8959 4.64875C38.1369 5.07136 37.2262 5.49398 36.4673 6.05746C35.5565 6.76182 34.6458 7.46617 33.7351 8.17053C32.9761 8.73401 32.369 9.2975 31.61 9.86098C30.3957 10.7062 29.3332 11.6923 28.1189 12.5375C24.0206 15.6367 20.0741 18.8767 15.9758 21.835C14.6097 22.8211 13.3954 23.6664 12.0293 24.6525C11.4221 25.0751 10.815 25.4977 10.056 25.9203C10.6632 25.0751 11.1185 24.2298 11.7257 23.3846C12.7882 21.6942 13.8507 20.0037 15.065 18.3133C16.1276 16.7637 17.0383 15.2141 18.1008 13.6645C18.708 12.8193 19.1633 11.9741 19.7705 10.988C20.3776 10.0019 21.1366 9.15663 21.592 8.02966C21.7437 7.46617 22.0473 6.90269 22.0473 6.3392C22.0473 5.91659 21.8955 5.49398 21.8955 5.07136C21.7437 4.36701 20.9848 3.66265 20.2259 3.52178C19.4669 3.38091 18.4044 3.52178 17.7972 4.08526C15.5204 6.48007 13.2436 9.01576 10.9667 11.4106C10.9667 10.8471 10.6632 10.8471 10.5114 10.8471C9.90422 10.8471 9.14527 11.1288 8.8417 11.5514C7.4756 13.101 6.1095 14.5097 4.89519 16.0593C3.3773 17.8906 1.85941 19.8628 0.341525 21.6942C-0.113842 22.2576 -0.113842 23.3846 0.341525 23.9481C0.796891 24.6525 1.55583 25.0751 2.46657 25.0751C2.77015 25.0751 3.22551 25.0751 3.52909 24.9342C3.98446 24.7933 4.43982 24.6525 4.7434 24.5116C4.28803 25.2159 3.68088 25.7794 3.3773 26.6247C3.07372 27.1881 2.92193 27.7516 2.77015 28.3151C2.61836 29.0195 2.61836 29.7238 2.61836 30.2873C2.61836 31.9778 4.43982 33.2456 6.26129 32.823C7.62739 32.4004 8.99349 32.1186 10.3596 31.5551C11.4221 31.2734 12.4846 30.569 13.6989 29.8647Z" fill="#3A7E55"/>
</g>
<defs>
<clipPath id="clip0_158_4853">
<rect width="401.727" height="38" fill="white"/>
</clipPath>
</defs>
</svg>
