<svg width="349" height="68" viewBox="0 0 349 68" fill="none" xmlns="http://www.w3.org/2000/svg">
<path fill-rule="evenodd" clip-rule="evenodd" d="M101.786 10.843C84.25 12.938 66.8868 15.6514 49.5484 19.2062C41.4022 20.8723 37.4238 21.8127 30.0108 23.8581C29.2612 24.0643 27.5892 24.3281 26.7819 24.5838C26.1642 24.7818 25.7688 25.0623 25.5629 25.2602C24.7969 26.0108 24.764 26.8273 25.0522 27.5696C25.184 27.9243 25.5052 28.584 26.5595 28.9222C31.1227 30.4151 35.76 31.6109 40.4385 32.5594C31.3451 33.112 22.5729 33.6151 13.3313 34.3987C8.80106 34.7863 2.57739 35.3968 1.82208 35.5122C-0.0765004 35.7926 -0.00896525 37.7062 0.0033899 37.8134C0.0206871 37.9536 0.262027 39.6609 2.11612 39.6279C60.6104 38.7289 119.009 36.4773 177.54 36.4113C177.77 36.4113 193.461 36.4608 206.731 36.7989C201.22 37.1783 194.45 37.5659 186.402 37.9948C148.942 39.9908 111.415 40.9724 74.0116 44.0488C55.8742 45.5417 56.3108 45.5415 38.437 47.62C28.3387 48.7912 28.7835 48.5932 18.4653 50.2923C17.5551 50.4407 15.6837 50.2842 14.7011 50.4326C13.9886 50.5481 13.473 50.812 13.1657 51.0595C12.6575 51.4801 12.403 51.9913 12.3347 52.5687C12.2762 53.0636 12.3338 53.7482 12.9673 54.4823C13.6386 55.2658 14.7447 55.9585 16.2521 56.4617C17.9917 57.039 20.3573 57.4103 23.0589 57.6082C32.8689 58.334 47.4316 56.8742 50.8004 56.8412C75.9637 56.569 101.086 54.9524 126.249 54.3256C126.241 54.4658 126.241 54.5978 126.257 54.7297C126.315 55.2658 126.554 55.8845 127.213 56.4206C127.897 56.9649 129.906 57.6329 132.6 58.1442C135.104 58.6226 138.283 59.0846 141.265 59.5218C137.583 59.8517 133.753 60.2558 131.298 60.6846C130.236 60.8743 127.468 61.163 127.089 61.3115C125.837 61.8064 125.747 62.829 125.755 63.2826C125.755 63.5383 125.854 65.1714 127.855 65.3694C145.087 67.0849 162.631 65.8726 179.772 67.9841C180.9 68.1243 181.93 67.3241 182.07 66.1941C182.21 65.0642 181.411 64.0332 180.282 63.893C171.403 62.796 162.417 62.59 153.414 62.4085C154.394 61.8971 154.724 61.1134 154.798 60.5856C154.88 59.9505 154.781 59.0845 153.793 58.3339C153.307 57.9628 152.154 57.4432 150.086 56.8988C147.36 56.1812 141.421 55.4307 136.479 54.6389C138.102 54.4327 139.725 54.2431 141.355 54.0699C153.587 53.9461 168.117 53.9132 179.343 53.8719C188.445 53.8472 197.786 53.7399 199.795 53.5914C200.496 53.5419 200.891 53.3606 200.998 53.3111C201.434 53.0802 201.665 52.7831 201.805 52.5522C202.225 51.8594 202.233 51.1667 201.846 50.4657C201.78 50.3502 201.344 49.5006 199.952 49.3686C180.472 47.6036 160.605 47.8675 141.117 49.9542C138.275 49.9789 135.565 50.0201 133.053 50.0613C105.608 50.5232 78.2041 52.4204 50.7592 52.7173C47.5221 52.7503 33.8326 54.1359 24.1709 53.5503C29.5907 52.7008 30.9168 52.6429 38.9147 51.7191C56.7144 49.6489 56.2778 49.6408 74.3493 48.1562C111.711 45.088 149.205 44.1065 186.617 42.1105C208.559 40.9393 221.219 40.0073 224.761 38.8609C226.367 38.3413 226.96 37.4093 227.117 36.8402C227.314 36.1639 227.24 35.4463 226.697 34.737C226.548 34.5473 226.293 34.275 225.848 34.0606C228.566 34.0441 231.285 34.0358 234.003 34.0276C258.021 33.9616 282.056 33.7718 306.066 33.9863C307.532 33.9945 308.999 34.0111 310.473 34.0358C322.408 34.3575 334.36 34.6544 346.303 34.8771L346.377 34.8854C351.171 34.9349 348.263 30.8109 346.509 30.7615C346.328 30.7532 345.076 30.7284 344.598 30.7119C341.188 30.6129 337.778 30.4481 334.368 30.3656C326.428 30.1759 318.463 30.0026 310.514 29.9119C250.559 28.2788 190.578 25.92 130.607 27.9325C107.585 28.7078 84.5711 29.8625 61.5741 31.2564C52.3818 30.5636 43.2802 29.2687 34.401 26.9345C39.7878 25.4994 43.6344 24.6252 50.3803 23.2478C69.6873 19.2888 89.0355 16.3854 108.623 14.1997C155.185 9.02833 202.192 9.72949 248.697 4.18694C249.529 4.08797 249.9 3.85706 249.966 3.80757C250.921 3.18898 250.962 2.37233 250.896 1.82797C250.872 1.59703 250.616 0.112451 248.911 0.00522874C248.31 -0.0360105 244.01 0.178458 242.346 0.236192C239.151 0.351662 235.947 0.516571 232.751 0.599049C220.231 0.928963 207.983 1.4899 195.463 2.12498C148.53 4.49211 101.284 7.69233 54.2516 7.54387C53.1149 7.54387 52.1924 8.46762 52.1841 9.60583C52.1841 10.7358 53.1066 11.6678 54.2351 11.6678C70.0744 11.7173 85.9303 11.3956 101.786 10.843Z" fill="black"/>
</svg>
