<svg width="314" height="25" viewBox="0 0 314 25" fill="none" xmlns="http://www.w3.org/2000/svg">
<g clip-path="url(#clip0_158_4855)">
<path fill-rule="evenodd" clip-rule="evenodd" d="M133.202 3.79016C118.468 4.56862 103.906 5.52582 89.7066 6.57227C69.6051 8.05262 49.5115 9.58403 29.539 12.0087C23.2521 12.7744 16.8677 13.2594 10.6201 14.2165C6.69822 14.8163 1.49793 15.6712 0.815463 15.8498C0.458502 15.9519 0.302773 16.1052 0.252452 16.1563C-0.101364 16.5136 -0.0368053 16.858 0.162904 17.126C0.243102 17.2409 0.4459 17.5217 1.00886 17.56C38.658 20.1762 77.1563 15.0715 114.851 14.5355C180.221 13.6167 247.571 17.2665 312.422 25.2298C312.988 25.2936 313.538 24.9745 313.617 24.5023C313.711 24.0429 313.302 23.5962 312.736 23.5324C247.776 15.5564 180.315 11.8937 114.82 12.8253C79.6896 13.3231 43.8662 17.8025 8.68744 16.2711C9.49572 16.1435 10.2883 16.0158 11.0117 15.9009C17.2341 14.9438 23.5918 14.4717 29.8535 13.706C49.7836 11.2813 69.8363 9.74987 89.911 8.28229C114.82 6.44461 140.813 4.86215 167.011 4.12198C176.384 4.23683 185.724 4.35174 195.065 4.49212C215.272 4.7984 235.573 5.69172 255.733 6.89131C261.803 7.2614 267.872 7.64422 273.942 7.97602C275.955 8.09087 281.145 8.42262 281.868 8.3971C282.764 8.37157 282.937 7.75907 282.953 7.65698C283 7.42727 282.969 7.10821 282.528 6.84021C282.481 6.80193 282.198 6.67423 281.569 6.59766C244.914 2.08004 205.774 1.32722 167.043 2.41196C126.189 1.93978 85.1777 1.7355 44.4276 1.51855C43.8442 1.51855 43.3677 1.90146 43.363 2.37364C43.3599 2.84582 43.83 3.22874 44.4134 3.2415C73.9201 3.39464 103.576 3.54769 133.202 3.79016Z" fill="#B0DAB9"/>
</g>
<defs>
<clipPath id="clip0_158_4855">
<rect width="314" height="25" fill="white"/>
</clipPath>
</defs>
</svg>
